HIERARCHY
ROOT Hips
{
 OFFSET 0.000000 0.000000 0.000000
 CHANNELS 6 Xposition Yposition Zposition Yrotation Xrotation Zrotation
 JOINT Chest
 {
  OFFSET 0.000000 9.585900 0.002600
  CHANNELS 3 Yrotation Xrotation Zrotation
  JOINT Chest2
  {
   OFFSET 0.000000 9.601200 -0.005300
   CHANNELS 3 Yrotation Xrotation Zrotation
   JOINT Chest3
   {
    OFFSET 0.000000 9.561800 0.000000
    CHANNELS 3 Yrotation Xrotation Zrotation
    JOINT Chest4
    {
     OFFSET 0.000000 9.552100 0.000000
     CHANNELS 3 Yrotation Xrotation Zrotation
     JOINT Neck
     {
      OFFSET 0.000000 14.453000 0.000000
      CHANNELS 3 Yrotation Xrotation Zrotation
      JOINT Head
      {
       OFFSET 0.000000 8.936500 -0.011300
       CHANNELS 3 Yrotation Xrotation Zrotation
       End Site
       {
        OFFSET 0.000000 17.073600 -0.006000
       }
      }
     }
     JOINT RightCollar
     {
      OFFSET -2.921100 9.558500 0.000000
      CHANNELS 3 Yrotation Xrotation Zrotation
      JOINT RightShoulder
      {
       OFFSET -13.519700 0.000000 0.000000
       CHANNELS 3 Yrotation Xrotation Zrotation
       JOINT RightElbow
       {
        OFFSET 0.000000 -29.696600 0.000000
        CHANNELS 3 Yrotation Xrotation Zrotation
        JOINT RightWrist
        {
         OFFSET 0.000000 -24.004700 0.000000
         CHANNELS 3 Yrotation Xrotation Zrotation
         End Site
         {
          OFFSET 0.000000 -17.728500 0.000000
         }
        }
       }
      }
     }
     JOINT LeftCollar
     {
      OFFSET 2.921100 9.558500 0.000000
      CHANNELS 3 Yrotation Xrotation Zrotation
      JOINT LeftShoulder
      {
       OFFSET 13.519700 0.000000 0.000000
       CHANNELS 3 Yrotation Xrotation Zrotation
       JOINT LeftElbow
       {
        OFFSET 0.000000 -29.696600 0.000000
        CHANNELS 3 Yrotation Xrotation Zrotation
        JOINT LeftWrist
        {
         OFFSET 0.000000 -24.004700 0.000000
         CHANNELS 3 Yrotation Xrotation Zrotation
         End Site
         {
          OFFSET 0.000000 -17.728500 0.000000
         }
        }
       }
      }
     }
    }
   }
  }
 }
 JOINT RightHip
 {
  OFFSET -7.771700 -0.012900 -0.001300
  CHANNELS 3 Yrotation Xrotation Zrotation
  JOINT RightKnee
  {
   OFFSET 0.000000 -40.869800 0.001200
   CHANNELS 3 Yrotation Xrotation Zrotation
   JOINT RightAnkle
   {
    OFFSET 0.000000 -39.717900 0.002100
    CHANNELS 3 Yrotation Xrotation Zrotation
    JOINT RightToe
    {
     OFFSET 0.000000 -4.965400 11.033500
     CHANNELS 3 Yrotation Xrotation Zrotation
     End Site
     {
      OFFSET 0.000000 -1.423100 5.872300
     }
    }
   }
  }
 }
 JOINT LeftHip
 {
  OFFSET 7.771700 -0.012900 -0.001300
  CHANNELS 3 Yrotation Xrotation Zrotation
  JOINT LeftKnee
  {
   OFFSET 0.000000 -40.869800 0.001200
   CHANNELS 3 Yrotation Xrotation Zrotation
   JOINT LeftAnkle
   {
    OFFSET 0.000000 -39.717900 0.002100
    CHANNELS 3 Yrotation Xrotation Zrotation
    JOINT LeftToe
    {
     OFFSET 0.000000 -4.965400 11.033500
     CHANNELS 3 Yrotation Xrotation Zrotation
     End Site
     {
      OFFSET 0.000000 -1.423100 5.872300
     }
    }
   }
  }
 }
}
MOTION
Frames: 15
Frame Time: 0.008333
-16.881547 57.865302 73.024599 -178.130115 -39.593168 -1.274944 -0.593513 26.029426 4.603319 -0.157651 4.447042 0.555527 -0.227105 7.047482 0.880061 -0.311396 21.554656 2.711188 1.718486 11.980677 -1.637848 3.913927 -13.534002 -3.845492 4.946392 2.153117 -2.008225 21.290123 -28.738388 -17.122468 16.318810 -60.368110 -0.303786 18.742178 11.416250 -19.536642 -10.658926 -2.103700 -6.166884 -7.125224 -29.427400 0.949502 -66.679516 -54.390881 40.647328 -15.832230 -3.178457 20.655005 6.480537 -31.460169 -5.837019 -5.832356 64.720114 -7.865655 4.911589 11.447884 9.042307 -0.774280 0.770112 -0.365860 -9.102828 -37.977956 -1.827190 28.137749 57.049037 24.377670 -11.602376 41.276776 1.982099 1.069843 -18.933271 -5.919220
-16.882910 57.868590 73.016311 -178.140465 -39.535314 -1.267270 -0.606282 26.012769 4.591066 -0.148216 4.424944 0.557154 -0.241196 7.058467 0.878835 -0.331006 21.552694 2.709591 1.706925 11.913118 -1.653072 3.959534 -13.587043 -3.879344 4.959033 2.108022 -2.017717 21.311847 -28.724438 -17.217427 16.275671 -60.368157 -0.067152 18.683218 11.435486 -19.693330 -10.635147 -2.135383 -6.168408 -7.149338 -29.404450 0.986211 -66.646359 -54.403450 40.629834 -15.831573 -3.176257 20.664198 6.482847 -31.514770 -5.850104 -5.812674 64.731722 -7.849540 4.895484 11.446387 9.031347 -0.752123 0.459707 -0.294164 -9.099539 -38.026216 -1.816641 28.131651 57.051326 24.373819 -11.575335 41.244782 2.007086 1.051365 -18.909322 -5.927129
-16.882639 57.869685 73.011911 -178.157755 -39.449687 -1.266902 -0.606121 25.966418 4.592411 -0.162455 4.438119 0.556554 -0.227398 7.029319 0.881256 -0.338579 21.548061 2.708907 1.704624 11.878321 -1.663070 3.975636 -13.662397 -3.910691 4.964692 2.079432 -2.020760 21.329843 -28.713214 -17.291955 16.268632 -60.362967 0.116566 18.657580 11.445528 -19.844572 -10.629963 -2.155924 -6.162629 -7.129020 -29.401840 0.978265 -66.609807 -54.347775 40.496052 -15.818763 -3.190580 20.744911 6.463790 -31.600944 -5.840166 -5.774402 64.738255 -7.833666 4.878798 11.443949 9.019978 -0.729978 -0.394838 -0.109731 -9.105526 -38.106085 -1.785079 28.109741 57.066913 24.356584 -11.523260 41.202166 2.045169 1.026014 -18.877740 -5.940013
-16.885574 57.876992 73.001108 -178.173709 -39.416988 -1.253037 -0.617757 25.972287 4.579239 -0.152129 4.418034 0.556674 -0.222067 7.019724 0.880826 -0.340992 21.546642 2.708942 1.688426 11.856252 -1.665202 3.988742 -13.738374 -3.943233 4.959331 2.065127 -2.015367 21.346390 -28.702392 -17.322729 16.336403 -60.346871 0.205357 18.703494 11.466390 -19.988285 -10.639540 -2.163554 -6.149416 -7.141661 -29.383703 0.994799 -66.570907 -54.345445 40.455108 -15.812154 -3.180395 20.720388 6.467677 -31.627228 -5.850572 -5.744780 64.747199 -7.811025 4.858266 11.447318 9.005556 -0.707068 -1.395183 0.103848 -9.080532 -38.123824 -1.797319 28.074508 57.070492 24.338571 -11.470516 41.162887 2.080678 0.998635 -18.843659 -5.951197
-16.891443 57.887757 72.987111 -178.222917 -39.413111 -1.205201 -0.604929 26.004311 4.555058 -0.154008 4.416196 0.556676 -0.225020 7.017150 0.880693 -0.350201 21.543116 2.708087 1.692758 11.815672 -1.679881 3.999012 -13.813532 -3.975073 4.979277 2.034142 -2.023201 21.361596 -28.694717 -17.419857 16.288976 -60.346756 0.420271 18.697227 11.492350 -20.119970 -10.624438 -2.191180 -6.144397 -7.162103 -29.364748 1.012949 -66.511551 -54.324781 40.367819 -15.802116 -3.192343 20.753729 6.511316 -31.624007 -5.876978 -5.715884 64.758747 -7.784623 4.833065 11.450721 8.991547 -0.683680 -2.198591 0.276742 -8.987644 -38.105676 -1.869063 28.033927 57.073380 24.343229 -11.354309 41.075352 2.171698 0.936809 -18.783335 -5.981347
-16.897293 57.892314 72.981571 -178.243860 -39.346546 -1.177832 -0.621758 26.004855 4.536584 -0.145018 4.384045 0.552198 -0.242997 7.042823 0.887062 -0.346106 21.513036 2.699798 1.705193 11.781351 -1.696821 3.996565 -13.894646 -4.002526 4.998996 2.004657 -2.032990 21.370792 -28.689982 -17.511185 16.252406 -60.346214 0.624412 18.674143 11.518876 -20.249327 -10.610980 -2.218410 -6.142535 -7.216554 -29.321332 1.066028 -66.442333 -54.329237 40.308959 -15.791968 -3.211588 20.797496 6.520464 -31.686000 -5.901426 -5.675956 64.766222 -7.760440 4.810810 11.447396 8.983228 -0.665849 -2.831753 0.412896 -8.939735 -38.158390 -1.908727 28.017897 57.056966 24.357638 -11.302223 41.046826 2.219213 0.901019 -18.758854 -5.998575
-16.902131 57.901141 72.971534 -178.268368 -39.317676 -1.158187 -0.615634 26.006219 4.534145 -0.145705 4.383686 0.550449 -0.247590 7.040201 0.889234 -0.355358 21.511499 2.698463 1.713902 11.749763 -1.713194 3.992082 -13.974254 -4.028073 5.014922 1.980342 -2.045161 21.402278 -28.675923 -17.672241 16.098235 -60.367586 0.934884 18.612587 11.541164 -20.379053 -10.600116 -2.240971 -6.144855 -7.228147 -29.304253 1.084457 -66.396761 -54.319085 40.245659 -15.781032 -3.225979 20.820581 6.516452 -31.710335 -5.904875 -5.637950 64.774967 -7.742175 4.792321 11.449869 8.971772 -0.650065 -3.348437 0.524358 -8.894592 -38.174738 -1.937319 27.995259 57.061139 24.360611 -11.234221 41.003201 2.273302 0.866999 -18.727937 -6.015735
-16.897436 57.908867 72.963419 -178.260880 -39.274781 -1.216957 -0.606446 25.992906 4.597787 -0.149016 4.385607 0.548632 -0.241738 7.023313 0.886737 -0.373807 21.523294 2.700193 1.694028 11.694395 -1.719584 4.021482 -14.027278 -4.066397 5.036370 1.957849 -2.061560 21.421210 -28.666908 -17.747473 16.090423 -60.368569 1.082120 18.665178 11.586042 -20.486694 -10.581500 -2.262973 -6.151445 -7.244267 -29.287234 1.105964 -66.372794 -54.325371 40.225038 -15.769615 -3.225495 20.816158 6.405040 -31.754142 -5.822278 -5.559742 64.778714 -7.715209 4.835375 11.421048 8.993371 -0.693863 -3.741928 0.586588 -8.938729 -38.202267 -1.870744 27.972987 57.075468 24.349532 -11.147041 40.983038 2.342157 0.823447 -18.716043 -6.037947
-16.903628 57.918501 72.953354 -178.277592 -39.250776 -1.195137 -0.604772 25.982641 4.587136 -0.165500 4.417485 0.559644 -0.228945 6.989948 0.875658 -0.408504 21.551500 2.716394 1.709975 11.645682 -1.753573 4.022586 -14.097712 -4.094405 5.075125 1.921128 -2.094725 21.436608 -28.655849 -17.821844 16.102741 -60.371637 1.208304 18.682479 11.631048 -20.595775 -10.542522 -2.305939 -6.179980 -7.265425 -29.267765 1.129808 -66.347964 -54.331072 40.200653 -15.764470 -3.223535 20.818146 6.371169 -31.770186 -5.826532 -5.505544 64.782807 -7.692816 4.822375 11.411521 8.979133 -0.676630 -4.065304 0.655120 -8.874011 -38.210928 -1.927259 27.948298 57.070817 24.360346 -11.049279 40.932634 2.431178 0.767900 -18.681493 -6.063665
-16.909898 57.928192 72.943523 -178.283311 -39.226160 -1.176943 -0.613884 25.972743 4.571907 -0.171207 4.437682 0.565765 -0.235824 6.981517 0.873695 -0.416752 21.555361 2.720550 1.722042 11.613983 -1.776608 4.010767 -14.172684 -4.117379 5.100159 1.899131 -2.113876 21.442526 -28.654655 -17.862639 16.177766 -60.367660 1.267425 18.684219 11.675368 -20.702232 -10.519562 -2.329475 -6.195642 -7.277048 -29.266410 1.140870 -66.291761 -54.305291 40.123132 -15.767683 -3.251213 20.858449 6.355098 -31.784981 -5.846122 -5.485504 64.790135 -7.681181 4.802434 11.398840 8.963002 -0.647609 -4.017265 0.647596 -8.808280 -38.217412 -1.989300 27.923280 57.052255 24.378486 -10.998621 40.899825 2.478560 0.735447 -18.651212 -6.077606
-16.915035 57.935744 72.936541 -178.278976 -39.180018 -1.166590 -0.629868 25.953705 4.562978 -0.167438 4.432937 0.564265 -0.246548 7.012660 0.885488 -0.416312 21.514533 2.706370 1.710254 11.588648 -1.780671 4.009344 -14.235078 -4.143929 5.107359 1.889351 -2.123344 21.447536 -28.653364 -17.894795 16.251362 -60.362811 1.321774 18.691611 11.721439 -20.801215 -10.508457 -2.322406 -6.190317 -7.290881 -29.277696 1.143608 -66.256649 -54.282382 40.060790 -15.764308 -3.268498 20.897933 6.329129 -31.821843 -5.862467 -5.454212 64.793933 -7.667016 4.786521 11.389848 8.952907 -0.623853 -3.369311 0.522227 -8.754715 -38.247610 -2.044883 27.893687 57.033206 24.394293 -10.948246 40.868380 2.520784 0.703741 -18.612783 -6.089804
-16.920075 57.944731 72.927963 -178.287427 -39.146665 -1.143115 -0.630219 25.952192 4.551578 -0.167942 4.408409 0.559009 -0.245786 7.031927 0.891144 -0.423133 21.500453 2.704471 1.694175 11.560241 -1.785248 4.019717 -14.256829 -4.159035 5.120803 1.881142 -2.130112 21.451402 -28.630302 -17.996384 16.151028 -60.401894 1.488275 18.695772 11.744509 -20.848472 -10.503342 -2.325603 -6.190148 -7.310048 -29.250793 1.183164 -66.211746 -54.259212 39.967012 -15.761083 -3.286810 20.962330 6.276768 -31.845971 -5.867395 -5.382274 64.795209 -7.639405 4.773540 11.373368 8.941281 -0.605229 -2.539357 0.360772 -8.623763 -38.258020 -2.139304 27.820523 57.009898 24.402145 -10.911075 40.836392 2.566277 0.679625 -18.578434 -6.101745
-16.920768 57.955908 72.916797 -178.275173 -39.132328 -1.153162 -0.632131 25.968110 4.563608 -0.169834 4.406947 0.559297 -0.245359 7.022352 0.890537 -0.430126 21.526510 2.716628 1.687796 11.509822 -1.805034 3.997027 -14.341652 -4.179228 5.148747 1.851050 -2.149052 21.435018 -28.626037 -18.044949 16.257626 -60.410130 1.531804 18.698767 11.804846 -20.952249 -10.497183 -2.365860 -6.196024 -7.313642 -29.248640 1.190259 -66.207269 -54.255490 39.951837 -15.765596 -3.277786 20.965664 6.102134 -31.852931 -5.814279 -5.219580 64.792785 -7.570596 4.770424 11.343687 8.910928 -0.597088 -1.865594 0.229306 -8.580959 -38.257092 -2.162965 27.790740 57.000891 24.404797 -10.903333 40.829075 2.585756 0.677347 -18.568210 -6.106755
-16.924592 57.964974 72.908214 -178.265152 -39.098385 -1.137711 -0.627748 25.985434 4.569339 -0.180940 4.380983 0.548057 -0.251493 7.001682 0.885147 -0.423040 21.539426 2.726608 1.671272 11.480787 -1.815325 3.967414 -14.421328 -4.194054 5.144552 1.834446 -2.158628 21.438091 -28.612244 -18.081175 16.369951 -60.422901 1.555949 18.707425 11.870742 -21.044405 -10.503998 -2.384242 -6.199348 -7.314532 -29.241051 1.199339 -66.208026 -54.255294 39.942521 -15.770621 -3.265148 20.967344 6.022240 -31.880597 -5.828809 -5.130267 64.801770 -7.514583 4.751548 11.325112 8.873519 -0.575467 -1.334424 0.131842 -8.517464 -38.278186 -2.208677 27.797753 56.980070 24.413460 -10.867846 40.829747 2.676440 0.647805 -18.565127 -6.127542
-16.925338 57.973534 72.900109 -178.243766 -39.060056 -1.144663 -0.632113 25.971477 4.581854 -0.171799 4.402887 0.560435 -0.267449 6.974380 0.873411 -0.420584 21.538927 2.729983 1.650836 11.446534 -1.824469 3.956660 -14.443253 -4.199100 5.149181 1.821989 -2.167153 21.426288 -28.605187 -18.107948 16.428127 -60.436312 1.572615 18.750518 11.925091 -21.084050 -10.506578 -2.392372 -6.203333 -7.321463 -29.231689 1.219603 -66.218377 -54.256740 39.927447 -15.772202 -3.255902 20.990943 5.922772 -31.915116 -5.829684 -5.033100 64.812026 -7.444975 4.739787 11.311534 8.836904 -0.562212 -0.914616 0.050965 -8.503753 -38.308029 -2.223285 27.772213 56.973815 24.402752 -10.848299 40.837775 2.698150 0.642671 -18.567408 -6.132675
